<svg id="svg" version="1.1" xmlns="http://www.w3.org/2000/svg" xmlns:xlink="http://www.w3.org/1999/xlink" width="400" height="400" viewBox="0, 0, 400,400"><g id="svgg"><path id="path0" d="M191.068 13.301 C 191.068 13.461,190.515 13.592,189.839 13.592 C 188.481 13.592,178.036 15.863,173.813 17.076 C 172.333 17.501,171.284 17.689,171.483 17.494 C 171.887 17.096,176.162 15.805,180.583 14.746 C 184.240 13.870,183.736 13.820,178.754 14.565 C 161.540 17.139,139.257 24.976,120.746 34.968 C 117.942 36.481,115.584 37.655,115.505 37.576 C 115.061 37.132,127.837 28.570,133.665 25.406 C 138.358 22.857,138.319 22.866,129.221 26.479 C 61.319 53.444,15.318 117.624,10.860 191.610 C 10.356 199.974,10.282 199.690,13.639 202.170 L 15.434 203.496 15.696 199.126 C 19.461 136.352,51.519 80.224,103.463 45.458 C 109.225 41.602,110.146 41.422,106.190 44.927 C 98.336 51.884,88.749 65.485,86.409 72.988 C 86.233 73.554,89.471 70.558,94.416 65.580 C 112.804 47.071,129.864 35.001,151.748 25.018 C 155.530 23.292,155.279 23.796,150.961 26.593 C 144.680 30.662,139.247 36.644,134.640 44.563 C 132.816 47.699,133.009 47.633,137.826 43.478 C 155.390 28.325,173.342 18.568,192.816 13.591 L 195.534 12.897 193.301 12.953 C 192.073 12.984,191.068 13.141,191.068 13.301 M195.534 13.549 C 176.029 20.639,157.944 37.862,141.863 64.660 C 138.947 69.520,133.101 80.416,132.213 82.647 C 131.371 84.763,131.128 84.467,130.363 80.388 C 128.034 67.973,128.391 61.204,131.976 49.806 C 132.595 47.837,132.148 48.177,126.358 54.078 C 114.547 66.114,105.169 78.475,95.937 94.175 C 92.755 99.585,83.495 117.886,83.495 118.763 C 83.495 121.155,82.700 118.101,82.173 113.689 C 80.490 99.576,81.655 85.640,85.342 75.788 C 86.443 72.846,75.775 86.511,68.835 96.932 C 47.807 128.509,34.257 170.197,33.320 206.197 L 33.204 210.646 36.893 211.542 C 40.964 212.529,61.256 216.699,61.992 216.699 C 62.472 216.699,62.487 216.541,63.309 203.495 C 64.975 177.051,70.904 150.686,80.905 125.249 C 82.861 120.273,82.892 120.225,83.250 121.560 C 87.930 139.022,92.161 149.280,101.298 165.326 C 105.288 172.334,105.505 172.597,105.797 170.787 C 109.818 145.788,116.150 121.811,124.078 101.553 C 127.445 92.952,130.988 85.004,131.305 85.345 C 131.450 85.503,132.024 86.909,132.581 88.472 C 135.630 97.026,138.688 103.530,143.204 111.068 C 146.268 116.181,154.478 128.155,154.921 128.155 C 155.063 128.155,155.580 125.665,156.070 122.621 C 164.586 69.676,179.999 28.201,196.158 14.754 C 198.667 12.666,198.556 12.451,195.534 13.549 M215.049 86.876 C 215.529 86.969,216.316 86.969,216.796 86.876 C 217.277 86.783,216.883 86.708,215.922 86.708 C 214.961 86.708,214.568 86.783,215.049 86.876 M154.781 129.743 C 152.177 140.976,148.432 183.366,147.578 211.262 C 147.366 218.204,147.184 224.058,147.174 224.272 C 147.164 224.485,146.594 224.026,145.908 223.250 C 145.222 222.475,141.992 218.843,138.732 215.179 C 126.845 201.822,118.947 191.826,109.873 178.652 L 105.467 172.255 105.190 173.603 C 103.716 180.768,101.680 204.211,101.256 218.883 L 101.165 222.038 104.272 222.287 C 122.837 223.778,135.863 224.567,152.816 225.227 C 170.435 225.913,173.528 226.010,185.534 226.246 L 197.282 226.477 197.282 201.487 L 197.282 176.496 192.330 171.242 C 177.796 155.821,169.989 147.050,161.581 136.699 C 154.654 128.170,155.051 128.577,154.781 129.743 M379.806 205.086 C 377.161 206.418,367.688 209.792,363.592 210.861 L 361.942 211.292 361.940 219.530 C 361.932 263.357,347.840 305.623,322.979 336.391 C 318.191 342.318,318.336 342.169,318.625 340.846 C 320.673 331.464,320.285 326.050,316.831 315.825 C 314.896 310.096,315.091 310.136,313.019 315.049 C 303.877 336.715,289.789 356.382,274.033 369.474 C 270.866 372.105,270.880 372.109,271.683 368.698 C 272.839 363.787,271.990 359.201,268.600 352.045 L 266.969 348.602 264.591 352.845 C 255.574 368.931,245.499 379.840,234.140 385.817 C 229.366 388.329,229.408 388.339,237.670 386.648 C 251.146 383.888,255.785 382.064,265.534 375.689 C 270.582 372.389,270.854 372.470,267.368 376.235 L 264.834 378.973 269.083 377.265 C 279.680 373.006,299.042 359.583,315.695 344.954 L 317.797 343.107 315.953 346.686 C 314.940 348.654,313.475 351.097,312.698 352.114 L 311.286 353.963 313.798 352.033 C 331.614 338.348,351.121 316.885,359.290 301.979 C 372.589 277.715,379.871 253.445,382.142 225.825 C 382.423 222.404,382.970 201.560,382.726 203.558 C 382.722 203.592,381.408 204.280,379.806 205.086 M328.072 217.688 C 327.738 218.023,314.578 219.659,303.301 220.769 C 297.641 221.325,292.442 221.869,291.748 221.976 L 290.485 222.171 290.479 228.658 C 290.467 240.583,289.153 264.302,288.213 269.563 L 287.961 270.970 282.524 264.762 C 272.746 253.596,246.475 225.631,245.763 225.631 C 245.584 225.631,245.436 231.529,245.436 238.738 C 245.433 263.485,242.848 303.930,240.561 314.991 C 240.366 315.931,239.677 315.342,230.758 306.619 C 215.999 292.182,197.661 274.831,197.418 275.074 C 197.087 275.405,198.016 351.385,198.444 358.987 C 198.649 362.641,198.998 370.000,199.218 375.340 C 199.439 380.680,199.732 386.339,199.868 387.917 L 200.117 390.786 206.544 390.509 C 213.762 390.197,213.989 390.126,217.238 387.157 C 226.116 379.043,234.442 355.434,239.210 324.854 C 239.676 321.864,240.177 318.738,240.324 317.907 L 240.590 316.397 245.608 321.791 C 254.741 331.607,259.863 337.875,264.295 344.660 C 265.550 346.583,266.627 348.228,266.687 348.317 C 268.524 351.039,280.680 308.584,286.795 278.090 C 287.370 275.224,287.965 272.542,288.117 272.131 C 288.877 270.076,305.793 293.791,311.921 305.502 C 313.411 308.350,314.755 310.680,314.909 310.680 C 315.393 310.680,319.203 299.895,321.356 292.427 C 327.275 271.907,329.948 253.442,330.367 230.194 L 330.596 217.476 329.440 217.476 C 328.805 217.476,328.189 217.571,328.072 217.688 " stroke="none" fill="#f2ca06" fill-rule="evenodd"></path><path id="path1" d="M195.903 15.114 C 179.921 28.725,165.107 68.517,156.241 121.650 C 155.644 125.228,155.034 128.155,154.886 128.155 C 154.499 128.155,150.622 122.705,146.046 115.728 C 141.343 108.557,136.062 98.147,133.391 90.784 C 132.327 87.851,131.346 85.449,131.211 85.444 C 130.960 85.437,126.430 95.681,124.317 101.032 C 116.977 119.628,110.516 143.410,106.605 166.238 L 105.569 172.282 109.539 178.083 C 117.522 189.747,126.464 201.195,136.548 212.664 C 142.340 219.251,146.985 224.379,147.084 224.295 C 147.135 224.251,147.355 218.373,147.571 211.234 C 148.137 192.621,149.030 178.500,150.702 161.748 C 151.943 149.307,154.427 130.310,154.935 129.378 C 155.132 129.016,156.521 130.456,159.429 134.039 C 168.656 145.408,178.320 156.329,190.874 169.576 L 197.087 176.133 197.327 145.057 C 197.459 127.965,197.599 108.039,197.639 100.777 C 197.806 70.554,198.937 17.124,199.475 14.078 C 199.803 12.222,199.037 12.444,195.903 15.114 M193.204 13.483 C 174.630 18.014,155.194 28.599,137.484 43.831 C 132.853 47.814,132.629 47.882,134.374 44.775 C 138.701 37.070,144.050 31.137,150.658 26.713 C 155.434 23.515,154.829 23.598,147.369 27.161 C 128.082 36.374,111.026 48.832,93.663 66.390 L 85.773 74.369 87.176 71.068 C 90.823 62.485,95.941 55.105,103.537 47.476 C 106.355 44.646,108.577 42.330,108.476 42.330 C 107.627 42.330,95.346 51.067,89.088 56.123 C 45.417 91.406,19.254 142.430,15.694 199.256 L 15.437 203.366 17.524 204.531 C 21.288 206.631,32.396 210.842,32.871 210.349 C 32.902 210.317,33.127 207.233,33.372 203.495 C 36.437 156.743,55.094 109.543,83.155 77.551 C 85.663 74.692,85.641 74.622,84.100 80.596 C 80.909 92.957,80.509 101.180,82.406 115.437 C 82.899 119.139,83.143 119.489,83.898 117.573 C 88.357 106.248,100.577 85.256,109.829 73.028 C 116.684 63.967,131.557 47.544,132.266 48.253 C 132.372 48.359,131.856 50.437,131.119 52.869 C 128.358 61.978,128.351 75.612,131.104 83.485 C 131.218 83.810,132.874 81.017,134.942 77.014 C 151.498 44.960,171.572 23.248,192.696 14.547 C 195.476 13.402,195.731 12.867,193.204 13.483 M175.340 14.424 C 153.389 17.276,137.340 22.403,125.585 30.318 C 121.794 32.870,115.169 37.670,115.436 37.670 C 115.545 37.670,117.053 36.885,118.787 35.926 C 137.561 25.541,158.729 17.930,178.085 14.605 C 184.638 13.479,183.292 13.390,175.340 14.424 M182.136 14.523 C 177.222 15.583,171.970 17.044,171.510 17.479 C 171.326 17.653,173.161 17.265,175.588 16.617 C 178.014 15.968,181.835 15.038,184.078 14.549 C 186.320 14.059,187.718 13.655,187.184 13.651 C 186.650 13.647,184.379 14.039,182.136 14.523 M81.544 123.766 C 72.822 144.684,66.331 171.297,63.896 196.117 C 63.299 202.200,62.437 216.352,62.650 216.565 C 63.048 216.964,88.371 220.456,98.932 221.568 L 101.359 221.824 101.361 217.417 C 101.365 208.730,102.618 192.642,104.301 179.689 L 105.250 172.389 101.537 165.903 C 92.689 150.449,88.368 140.393,84.443 126.115 C 83.665 123.286,82.979 120.918,82.918 120.854 C 82.857 120.789,82.239 122.100,81.544 123.766 M387.196 200.569 C 386.936 200.882,385.758 201.778,384.578 202.562 L 382.433 203.986 382.683 206.944 C 384.651 230.243,376.438 268.022,363.908 293.301 C 362.241 296.665,360.932 299.417,361.001 299.417 C 361.323 299.417,367.345 288.304,369.689 283.385 C 380.323 261.060,386.404 237.508,387.959 212.621 C 388.647 201.598,388.484 199.017,387.196 200.569 M359.029 212.149 C 355.142 213.139,339.998 216.146,334.905 216.938 L 330.586 217.610 330.378 230.067 C 329.901 258.643,324.219 289.515,315.836 309.088 L 315.104 310.797 316.357 314.136 C 319.878 323.519,320.676 330.840,319.037 338.724 C 318.374 341.912,318.322 341.923,321.466 338.180 C 347.131 307.616,362.590 261.877,361.868 218.641 L 361.748 211.456 359.029 212.149 M288.544 222.362 C 287.514 222.601,267.693 224.062,257.476 224.651 C 244.879 225.377,229.239 225.918,211.359 226.244 L 197.282 226.501 197.283 246.357 C 197.284 257.278,197.399 268.182,197.537 270.588 L 197.789 274.963 208.506 285.118 C 214.401 290.704,223.971 299.878,229.774 305.506 C 239.842 315.271,240.334 315.690,240.548 314.666 C 242.884 303.466,245.437 263.647,245.437 238.403 C 245.437 231.378,245.580 225.631,245.755 225.631 C 246.125 225.631,252.167 231.798,261.546 241.748 C 265.171 245.592,268.236 248.825,268.358 248.932 C 268.924 249.428,280.988 262.792,284.270 266.559 L 287.954 270.787 288.209 269.277 C 289.165 263.613,290.466 240.202,290.479 228.447 C 290.486 221.669,290.557 221.893,288.544 222.362 M288.009 272.486 C 281.366 305.120,274.332 331.553,268.809 344.633 C 266.980 348.965,267.004 348.961,264.672 345.333 C 260.512 338.861,255.704 332.891,247.396 323.883 C 245.327 321.641,242.957 319.048,242.129 318.121 L 240.624 316.436 238.985 326.276 C 233.367 360.011,225.180 381.705,215.394 388.794 L 213.864 389.903 215.267 389.903 C 227.931 389.903,237.684 385.560,247.967 375.340 C 254.359 368.987,261.834 358.535,265.672 350.583 C 266.852 348.139,266.971 348.196,268.744 352.053 C 271.918 358.954,272.780 363.779,271.728 368.738 C 271.410 370.233,271.182 371.492,271.221 371.535 C 271.468 371.815,279.764 364.392,283.371 360.665 C 295.090 348.553,305.365 332.749,312.813 315.381 L 314.711 310.956 312.903 307.420 C 307.447 296.747,297.910 282.783,288.514 271.709 C 288.360 271.528,288.133 271.877,288.009 272.486 M315.340 345.327 C 306.695 353.409,289.974 365.784,278.662 372.473 C 273.245 375.676,274.308 375.329,282.878 371.095 C 296.503 364.364,309.926 355.728,312.773 351.861 C 314.173 349.960,317.945 343.271,317.592 343.316 C 317.528 343.324,316.515 344.229,315.340 345.327 M265.938 375.483 C 263.865 376.911,260.341 379.036,258.107 380.205 C 253.082 382.835,253.128 382.888,258.785 380.988 C 264.355 379.116,265.541 378.405,267.986 375.467 C 270.788 372.100,270.851 372.100,265.938 375.483 " stroke="none" fill="#040404" fill-rule="evenodd"></path><path id="path2" d="M188.058 13.094 C 188.646 13.183,189.607 13.183,190.194 13.094 C 190.782 13.005,190.301 12.932,189.126 12.932 C 187.951 12.932,187.471 13.005,188.058 13.094 M199.583 13.461 C 199.567 13.854,199.491 14.524,199.413 14.951 C 199.132 16.505,198.460 41.774,198.255 58.447 C 198.140 67.845,197.956 77.325,197.846 79.515 C 197.634 83.717,197.997 84.587,198.817 81.845 C 201.504 72.861,210.107 68.077,217.798 71.291 C 219.773 72.116,219.830 72.036,218.995 69.612 C 217.290 64.658,217.757 58.749,220.122 55.340 C 226.234 46.529,242.714 55.948,245.393 69.782 L 246.019 73.015 247.379 72.837 C 248.126 72.739,250.223 72.554,252.039 72.426 C 253.854 72.298,256.039 72.121,256.893 72.034 C 257.748 71.947,259.670 71.768,261.165 71.636 C 266.478 71.170,272.650 70.392,272.883 70.159 C 273.999 69.043,254.609 47.539,246.438 40.833 C 242.113 37.283,241.980 37.232,241.060 38.788 C 236.703 46.165,214.369 34.021,214.369 24.274 C 214.369 23.162,214.181 22.978,212.214 22.162 C 208.998 20.829,204.599 17.813,201.956 15.129 C 200.239 13.385,199.604 12.939,199.583 13.461 M213.398 17.403 C 227.257 22.876,228.946 23.591,233.891 26.072 C 253.865 36.094,269.312 50.703,286.393 75.728 C 288.070 78.184,289.555 80.326,289.693 80.487 C 290.375 81.281,308.161 77.212,316.524 74.349 C 323.015 72.126,326.651 70.250,329.010 67.908 L 330.835 66.095 335.628 71.010 C 349.933 85.682,356.652 105.985,346.105 102.667 C 340.234 100.821,335.081 95.805,331.311 88.268 L 329.716 85.080 325.926 86.467 C 318.750 89.093,314.596 90.422,310.874 91.282 C 308.568 91.815,307.206 92.310,307.309 92.577 C 307.401 92.815,308.730 95.194,310.264 97.864 C 315.838 107.573,321.315 119.059,325.725 130.291 C 328.206 136.612,327.964 136.210,328.833 135.449 C 332.393 132.327,337.723 133.157,342.386 137.559 C 356.610 150.988,356.970 179.261,342.915 179.213 L 339.879 179.203 340.612 180.641 C 346.646 192.468,343.689 209.730,334.627 215.588 C 331.853 217.380,332.025 217.399,339.427 216.104 C 362.705 212.033,379.195 206.816,386.175 201.315 L 388.466 199.509 388.227 192.667 C 386.110 132.108,350.104 70.933,298.835 40.789 C 295.994 39.119,297.999 40.619,302.427 43.478 C 307.150 46.526,307.873 47.160,304.917 45.663 C 298.420 42.371,292.039 42.345,292.039 45.612 C 292.039 47.785,302.023 57.801,308.389 62.014 C 310.891 63.670,310.398 63.854,297.190 66.203 L 289.720 67.531 279.326 57.127 C 268.883 46.675,264.084 42.308,256.893 36.715 C 254.757 35.054,252.922 33.608,252.816 33.502 C 252.709 33.396,253.320 33.419,254.175 33.552 C 260.133 34.483,253.814 27.807,244.790 23.638 C 240.535 21.672,233.334 19.198,230.226 18.635 C 228.873 18.390,226.631 17.688,225.243 17.076 C 222.606 15.914,216.436 14.018,215.005 13.929 C 214.493 13.898,214.696 13.764,215.534 13.580 C 216.782 13.306,216.719 13.278,214.757 13.236 C 213.583 13.211,210.175 13.103,207.184 12.996 L 201.748 12.802 213.398 17.403 M182.621 13.472 C 182.995 13.569,183.607 13.569,183.981 13.472 C 184.354 13.374,184.049 13.294,183.301 13.294 C 182.553 13.294,182.248 13.374,182.621 13.472 M218.738 13.860 C 219.112 13.958,219.723 13.958,220.097 13.860 C 220.471 13.762,220.165 13.682,219.417 13.682 C 218.670 13.682,218.364 13.762,218.738 13.860 M255.340 21.359 C 255.767 21.543,256.379 21.693,256.699 21.693 C 257.066 21.693,256.994 21.570,256.505 21.359 C 256.078 21.176,255.466 21.025,255.146 21.025 C 254.778 21.025,254.850 21.149,255.340 21.359 M139.417 22.330 C 138.670 22.618,138.320 22.859,138.641 22.866 C 138.961 22.872,139.748 22.638,140.388 22.344 C 141.888 21.657,141.191 21.647,139.417 22.330 M129.515 25.951 C 125.715 27.465,122.069 29.162,123.690 28.663 C 124.519 28.408,134.572 24.365,134.725 24.226 C 135.206 23.786,133.695 24.286,129.515 25.951 M265.631 24.789 C 265.951 24.987,266.650 25.266,267.184 25.408 C 267.859 25.589,267.978 25.558,267.573 25.308 C 267.252 25.110,266.553 24.831,266.019 24.689 C 265.345 24.508,265.226 24.539,265.631 24.789 M273.010 27.767 C 273.544 28.072,274.155 28.322,274.369 28.322 C 274.583 28.322,274.320 28.072,273.786 27.767 C 273.252 27.462,272.641 27.212,272.427 27.212 C 272.214 27.212,272.476 27.462,273.010 27.767 M116.699 31.602 C 78.544 50.181,47.248 81.561,29.056 119.481 C 25.166 127.590,25.831 126.772,30.215 118.055 C 49.232 80.246,78.243 51.225,115.715 32.525 C 119.887 30.443,123.126 28.745,122.913 28.752 C 122.699 28.759,119.903 30.042,116.699 31.602 M276.505 29.320 C 277.039 29.626,277.650 29.875,277.864 29.875 C 278.078 29.875,277.816 29.626,277.282 29.320 C 276.748 29.015,276.136 28.765,275.922 28.765 C 275.709 28.765,275.971 29.015,276.505 29.320 M279.256 30.441 C 279.651 30.807,288.932 35.325,288.932 35.152 C 288.932 34.937,279.782 30.291,279.359 30.291 C 279.213 30.291,279.167 30.359,279.256 30.441 M289.320 35.518 C 289.320 35.625,290.019 36.069,290.874 36.505 C 291.728 36.941,292.427 37.210,292.427 37.103 C 292.427 36.996,291.728 36.552,290.874 36.117 C 290.019 35.681,289.320 35.411,289.320 35.518 M292.816 37.456 C 292.816 37.563,293.340 37.921,293.981 38.252 C 294.621 38.584,295.146 38.768,295.146 38.661 C 295.146 38.554,294.621 38.195,293.981 37.864 C 293.340 37.533,292.816 37.349,292.816 37.456 M280.000 82.361 C 259.476 85.063,228.579 86.983,205.534 86.988 L 198.058 86.990 198.058 87.912 C 198.058 91.115,201.171 97.503,203.960 100.023 C 208.371 104.008,216.944 105.315,222.280 102.816 C 223.534 102.228,224.649 101.748,224.757 101.748 C 224.866 101.748,224.838 102.777,224.696 104.034 C 223.395 115.529,233.300 126.663,244.854 126.696 C 257.656 126.731,263.657 114.795,257.242 102.056 L 255.930 99.451 257.188 99.261 C 257.880 99.156,261.942 98.790,266.214 98.448 C 270.485 98.106,277.099 97.467,280.911 97.028 C 284.741 96.587,287.989 96.378,288.170 96.561 C 290.126 98.533,302.671 130.992,304.599 139.067 L 304.840 140.077 302.808 139.528 C 293.457 137.003,286.208 145.008,286.216 157.849 C 286.227 175.341,299.544 189.058,311.210 183.593 C 313.488 182.526,313.488 182.526,313.248 183.399 C 309.184 198.157,317.713 217.474,328.294 217.475 L 330.180 217.476 329.922 213.883 C 326.126 161.023,316.709 128.060,294.171 88.738 C 289.882 81.255,289.815 81.156,289.020 81.214 C 288.651 81.241,284.592 81.757,280.000 82.361 M24.846 128.815 C 23.051 133.122,21.696 136.777,21.840 136.921 C 21.908 136.989,22.950 134.565,24.155 131.534 C 25.361 128.503,26.293 125.970,26.228 125.904 C 26.162 125.839,25.541 127.148,24.846 128.815 M20.040 141.627 C 19.271 143.937,18.654 146.001,18.670 146.214 C 18.687 146.428,19.384 144.605,20.219 142.163 C 21.054 139.722,21.671 137.658,21.589 137.576 C 21.507 137.494,20.810 139.317,20.040 141.627 M17.698 148.960 C 17.555 149.529,17.513 150.069,17.604 150.161 C 17.696 150.253,17.888 149.862,18.031 149.293 C 18.173 148.724,18.215 148.183,18.124 148.091 C 18.032 148.000,17.840 148.391,17.698 148.960 M16.731 152.460 C 16.481 153.455,16.349 154.342,16.438 154.431 C 16.527 154.520,16.804 153.778,17.055 152.783 C 17.306 151.788,17.438 150.901,17.349 150.812 C 17.260 150.723,16.982 151.464,16.731 152.460 M15.361 157.886 C 15.215 158.665,15.173 159.380,15.268 159.475 C 15.363 159.570,15.560 159.010,15.707 158.231 C 15.853 157.451,15.895 156.736,15.800 156.641 C 15.705 156.546,15.508 157.106,15.361 157.886 M12.129 175.534 C 12.129 176.282,12.209 176.587,12.307 176.214 C 12.404 175.840,12.404 175.228,12.307 174.854 C 12.209 174.481,12.129 174.786,12.129 175.534 M11.741 178.641 C 11.741 179.388,11.821 179.694,11.918 179.320 C 12.016 178.947,12.016 178.335,11.918 177.961 C 11.821 177.587,11.741 177.893,11.741 178.641 M11.360 181.942 C 11.364 182.796,11.444 183.100,11.537 182.617 C 11.630 182.134,11.626 181.435,11.529 181.063 C 11.432 180.692,11.356 181.087,11.360 181.942 M10.985 186.214 C 10.988 187.282,11.063 187.672,11.152 187.082 C 11.242 186.492,11.239 185.618,11.147 185.140 C 11.055 184.663,10.982 185.146,10.985 186.214 M10.616 192.233 C 10.616 193.835,10.685 194.490,10.768 193.689 C 10.852 192.888,10.852 191.578,10.768 190.777 C 10.685 189.976,10.616 190.631,10.616 192.233 M10.596 208.455 C 11.305 238.205,19.669 268.197,34.636 294.660 C 36.946 298.743,37.463 299.417,38.291 299.417 C 41.963 299.417,49.476 307.227,56.914 318.776 C 62.242 327.048,60.847 325.924,68.575 328.174 C 72.818 329.409,80.870 331.298,81.064 331.104 C 81.130 331.038,80.156 329.343,78.901 327.337 C 73.497 318.704,68.337 308.254,64.444 298.058 C 63.303 295.068,62.355 292.587,62.339 292.546 C 62.322 292.504,61.615 292.626,60.768 292.817 C 46.767 295.975,31.075 254.534,44.196 249.052 C 45.781 248.390,47.569 248.617,49.825 249.768 C 51.770 250.760,51.747 250.833,50.665 247.097 C 46.582 233.000,49.988 220.036,58.522 217.192 L 60.715 216.461 55.115 215.399 C 30.713 210.770,17.944 206.438,11.980 200.766 L 10.377 199.240 10.596 208.455 M388.067 212.427 C 388.067 213.388,388.143 213.782,388.235 213.301 C 388.328 212.820,388.328 212.034,388.235 211.553 C 388.143 211.073,388.067 211.466,388.067 212.427 M387.663 217.864 C 387.663 218.612,387.743 218.917,387.841 218.544 C 387.938 218.170,387.938 217.558,387.841 217.184 C 387.743 216.811,387.663 217.117,387.663 217.864 M62.913 223.510 C 62.913 268.254,73.349 305.506,95.251 338.943 C 97.389 342.206,99.039 344.974,98.919 345.094 C 98.080 345.933,76.492 340.707,70.421 338.194 C 65.052 335.972,51.573 320.662,41.579 305.434 C 38.042 300.044,36.735 298.259,38.454 301.165 C 59.055 336.002,95.774 365.646,136.079 379.980 C 142.561 382.286,145.507 383.103,142.125 381.657 C 128.874 375.992,112.119 362.109,100.616 347.264 C 98.873 345.013,98.791 345.028,106.868 346.157 C 121.454 348.195,134.918 349.499,151.456 350.476 C 162.965 351.156,197.544 352.100,197.899 351.745 C 198.651 350.993,195.754 345.659,193.312 343.299 C 188.101 338.265,176.506 336.458,169.320 339.560 C 168.826 339.773,168.737 339.241,168.729 336.022 C 168.715 329.930,165.512 325.075,158.954 321.200 C 141.493 310.883,123.621 321.049,133.190 335.854 L 134.740 338.252 133.293 338.251 C 128.582 338.246,101.806 335.270,101.068 334.669 C 98.807 332.829,85.049 300.029,85.049 296.477 C 85.049 296.123,85.760 296.273,87.476 296.987 C 101.076 302.649,108.951 287.000,100.813 270.485 C 95.540 259.787,86.160 253.408,78.720 255.462 C 77.413 255.823,77.268 255.795,77.444 255.216 C 79.846 247.271,78.283 234.682,73.921 226.847 C 71.737 222.923,65.357 217.087,63.252 217.087 C 63.065 217.087,62.913 219.978,62.913 223.510 M368.239 286.425 C 366.914 289.085,365.914 291.262,366.018 291.262 C 366.276 291.262,370.956 281.895,370.785 281.723 C 370.710 281.648,369.564 283.764,368.239 286.425 M357.080 305.728 C 346.128 322.180,332.505 337.080,317.409 349.119 C 314.669 351.304,311.816 353.607,311.068 354.237 L 309.709 355.383 311.262 354.300 C 324.238 345.254,339.819 329.839,350.838 315.146 C 354.693 310.005,360.271 301.748,359.888 301.748 C 359.801 301.748,358.538 303.539,357.080 305.728 M197.350 356.589 C 194.344 362.692,185.966 365.691,177.864 363.563 C 174.390 362.651,174.580 362.556,175.642 364.681 C 180.947 375.299,166.251 379.401,153.317 370.913 C 149.125 368.163,145.243 363.587,145.243 361.398 C 145.243 360.515,145.094 360.484,137.654 359.822 C 133.818 359.481,127.815 358.853,124.313 358.427 C 120.811 358.001,117.852 357.747,117.736 357.863 C 117.362 358.237,129.014 369.482,132.816 372.416 C 139.500 377.576,142.407 379.264,145.049 379.519 C 148.719 379.873,168.761 387.347,167.737 387.980 C 166.681 388.632,182.231 390.304,191.809 390.568 L 200.122 390.797 199.880 388.117 C 199.747 386.643,199.442 380.806,199.203 375.146 C 198.964 369.485,198.652 362.583,198.510 359.806 L 198.252 354.757 197.350 356.589 M308.155 356.345 L 306.990 357.346 308.252 356.511 C 308.947 356.051,309.515 355.600,309.515 355.508 C 309.515 355.217,309.350 355.318,308.155 356.345 M300.680 361.210 C 299.356 362.057,298.928 362.627,300.097 361.984 C 300.988 361.494,302.384 360.415,302.136 360.407 C 302.029 360.404,301.374 360.765,300.680 361.210 M286.505 369.345 C 285.277 369.979,284.272 370.585,284.272 370.691 C 284.272 370.798,285.320 370.356,286.602 369.709 C 287.883 369.062,288.932 368.448,288.932 368.344 C 288.932 368.085,289.004 368.055,286.505 369.345 M281.165 372.039 C 279.990 372.659,279.204 373.167,279.417 373.167 C 279.631 373.167,280.767 372.659,281.942 372.039 C 283.117 371.418,283.903 370.910,283.689 370.910 C 283.476 370.910,282.340 371.418,281.165 372.039 M269.223 377.173 C 267.033 378.051,265.307 378.835,265.388 378.915 C 265.530 379.057,273.428 376.015,273.754 375.694 C 274.167 375.286,272.895 375.702,269.223 377.173 M251.456 383.301 C 250.967 383.511,250.895 383.635,251.262 383.635 C 251.583 383.635,252.194 383.485,252.621 383.301 C 253.111 383.091,253.183 382.967,252.816 382.967 C 252.495 382.967,251.883 383.117,251.456 383.301 M247.961 384.286 C 246.430 384.816,246.427 384.821,247.767 384.595 C 249.351 384.327,250.971 383.736,250.097 383.744 C 249.777 383.747,248.816 383.991,247.961 384.286 M214.854 390.171 C 215.228 390.268,215.840 390.268,216.214 390.171 C 216.587 390.073,216.282 389.993,215.534 389.993 C 214.786 389.993,214.481 390.073,214.854 390.171 M208.454 390.573 C 209.152 390.659,210.200 390.657,210.784 390.569 C 211.367 390.480,210.796 390.409,209.515 390.412 C 208.233 390.414,207.756 390.486,208.454 390.573 " stroke="none" fill="#faf9f8" fill-rule="evenodd"></path><path id="path3" d="M200.775 13.590 C 201.852 15.602,208.131 20.199,212.259 21.997 L 214.636 23.033 214.662 24.719 C 214.812 34.680,238.669 46.536,241.379 37.997 C 241.716 36.934,242.009 37.061,245.317 39.707 C 253.045 45.887,273.398 68.043,273.398 70.276 C 273.398 70.609,272.439 70.722,258.319 72.049 C 244.518 73.346,245.437 73.397,245.437 71.333 C 245.437 63.074,236.250 53.026,227.913 52.166 C 220.241 51.374,216.083 59.547,219.187 69.320 C 220.003 71.891,220.040 72.239,219.478 72.075 C 214.857 70.733,214.041 70.599,211.598 70.774 C 205.526 71.208,200.552 75.933,198.786 82.945 C 198.411 84.435,198.256 84.660,198.020 84.057 C 197.836 83.585,197.731 84.178,197.742 85.631 C 197.752 86.913,197.840 87.655,197.938 87.282 C 198.101 86.658,198.899 86.602,207.698 86.601 C 224.397 86.598,247.375 85.492,264.377 83.872 C 275.341 82.827,288.665 81.155,289.071 80.773 C 289.750 80.135,278.831 64.931,271.642 56.505 C 255.390 37.455,242.701 29.024,212.621 17.286 C 201.551 12.966,200.219 12.551,200.775 13.590 M220.388 15.086 C 222.311 15.670,224.583 16.526,225.437 16.988 C 226.291 17.450,228.476 18.119,230.291 18.474 C 239.385 20.253,250.523 25.598,254.911 30.288 C 257.178 32.711,257.165 33.592,254.864 33.592 C 253.971 33.592,253.363 33.703,253.513 33.839 C 253.664 33.975,255.971 35.823,258.641 37.945 C 266.841 44.464,279.397 56.290,287.393 65.026 L 289.505 67.333 295.709 66.267 C 304.013 64.840,309.566 63.638,309.431 63.298 C 309.370 63.144,307.497 61.569,305.268 59.799 C 297.620 53.722,292.039 47.792,292.039 45.744 C 292.039 42.867,296.395 42.081,301.553 44.027 C 305.161 45.387,304.251 44.678,296.117 39.785 C 274.407 26.727,249.039 17.920,223.489 14.570 C 217.115 13.735,216.355 13.861,220.388 15.086 M126.602 53.398 C 125.011 55.000,123.796 56.311,123.903 56.311 C 124.010 56.311,125.399 55.000,126.990 53.398 C 128.582 51.796,129.796 50.485,129.689 50.485 C 129.583 50.485,128.193 51.796,126.602 53.398 M328.972 68.213 C 324.959 72.274,310.697 77.229,294.904 80.048 L 289.859 80.948 292.895 86.131 C 315.728 125.114,326.515 161.090,329.866 209.439 C 330.491 218.455,330.210 217.875,333.193 216.285 C 342.796 211.167,346.522 195.250,341.130 182.375 C 339.509 178.505,339.457 178.742,341.895 178.944 C 346.458 179.323,349.253 177.611,351.217 173.235 C 358.853 156.220,341.770 126.784,329.207 135.310 L 327.891 136.203 325.826 130.917 C 321.444 119.701,315.521 107.305,309.755 97.286 C 308.159 94.511,306.895 92.199,306.946 92.148 C 306.997 92.097,309.125 91.529,311.675 90.886 C 314.225 90.243,319.326 88.638,323.011 87.319 C 326.696 86.001,329.774 84.994,329.851 85.082 C 329.927 85.171,330.925 87.078,332.067 89.320 C 336.538 98.097,347.040 105.521,350.134 102.093 C 352.651 99.304,349.766 90.469,342.949 80.087 C 340.904 76.973,331.524 66.344,330.910 66.446 C 330.783 66.467,329.911 67.262,328.972 68.213 M197.834 106.019 C 197.637 115.097,197.476 134.583,197.476 149.320 C 197.476 164.058,197.432 187.448,197.379 201.297 L 197.282 226.477 185.534 226.246 C 173.528 226.010,170.435 225.913,152.816 225.227 C 138.607 224.674,129.599 224.176,117.282 223.265 C 106.404 222.460,102.230 222.089,93.786 221.175 C 89.261 220.685,81.280 219.666,78.641 219.240 C 78.000 219.137,76.777 218.959,75.922 218.845 C 72.729 218.419,72.420 218.371,72.136 218.265 C 71.976 218.204,71.364 218.099,70.777 218.030 C 70.189 217.961,69.184 217.819,68.544 217.714 C 64.320 217.024,63.771 217.100,65.728 218.102 C 74.771 222.732,80.890 239.411,78.321 252.427 C 77.643 255.864,77.539 255.615,79.433 255.092 C 85.222 253.493,93.465 258.391,98.884 266.648 C 110.260 283.981,102.618 303.703,87.103 297.052 C 84.971 296.139,84.958 295.955,87.576 303.663 C 91.456 315.090,100.265 334.756,101.503 334.758 C 101.744 334.758,104.650 335.101,107.961 335.519 C 112.903 336.143,121.666 337.025,132.727 338.011 L 134.386 338.159 133.573 336.944 C 130.254 331.982,129.354 327.062,131.145 323.669 C 138.632 309.492,169.097 319.403,169.121 336.023 C 169.125 338.887,169.218 339.389,169.709 339.199 C 179.955 335.230,193.835 339.844,197.233 348.350 L 198.086 350.485 197.870 339.492 C 197.752 333.445,197.549 305.549,197.420 277.499 L 197.185 226.500 211.505 226.241 C 230.567 225.895,247.099 225.264,262.718 224.285 C 264.000 224.205,266.946 224.030,269.265 223.897 C 281.672 223.183,324.476 218.778,326.602 217.996 C 326.959 217.865,326.507 217.572,325.437 217.240 C 316.075 214.337,310.073 198.705,312.817 184.371 L 313.095 182.916 310.820 183.982 C 299.882 189.105,286.810 176.088,285.956 159.223 C 285.271 145.704,293.347 136.409,303.204 139.372 C 304.859 139.870,304.960 140.406,301.406 129.753 C 295.982 113.495,288.774 96.697,287.223 96.701 C 286.775 96.703,282.448 97.129,277.607 97.649 C 272.767 98.169,265.927 98.809,262.407 99.070 L 256.008 99.545 257.098 101.326 C 264.183 112.901,258.263 126.294,245.787 126.914 C 234.304 127.484,224.660 117.922,224.660 105.965 L 224.660 101.832 223.216 102.568 C 213.349 107.597,201.456 102.176,198.673 91.382 C 198.255 89.761,198.144 91.689,197.834 106.019 M58.728 217.270 C 49.978 220.002,46.471 234.755,51.295 248.530 C 52.293 251.380,52.319 251.349,50.000 250.070 C 37.210 243.018,35.735 266.964,47.875 284.578 C 51.806 290.281,55.243 292.621,59.687 292.621 L 62.480 292.621 64.115 296.893 C 68.119 307.359,73.411 318.104,79.081 327.282 C 81.225 330.751,81.439 331.262,80.746 331.262 C 79.607 331.262,69.603 328.770,65.195 327.388 L 61.458 326.217 58.213 321.070 C 51.365 310.208,44.690 302.381,40.547 300.354 C 37.508 298.867,37.547 298.983,42.671 306.649 C 52.677 321.619,65.269 335.819,70.467 337.995 C 75.391 340.057,98.246 345.767,98.911 345.102 C 98.961 345.052,97.774 343.185,96.275 340.952 C 73.894 307.626,63.911 273.530,62.651 226.117 L 62.400 216.699 61.394 216.725 C 60.841 216.739,59.641 216.984,58.728 217.270 M99.699 345.797 C 105.604 355.958,126.692 374.083,140.000 380.436 C 144.466 382.568,165.713 388.203,166.462 387.454 C 167.133 386.783,147.757 379.842,144.975 379.756 C 141.494 379.649,131.271 372.151,122.427 363.218 C 117.212 357.950,116.585 357.106,118.155 357.468 C 119.498 357.778,136.038 359.543,140.194 359.819 C 144.601 360.112,145.243 360.264,145.243 361.010 C 145.243 364.941,153.032 371.712,160.435 374.217 C 171.559 377.980,179.552 372.735,175.341 364.435 C 174.808 363.384,174.371 362.498,174.371 362.465 C 174.370 362.433,175.199 362.658,176.214 362.965 C 186.747 366.155,196.870 361.857,197.960 353.731 C 198.152 352.294,198.115 352.233,197.041 352.225 C 164.110 351.989,129.700 349.750,105.702 346.282 C 101.774 345.715,99.546 345.535,99.699 345.797 " stroke="none" fill="#e31c34" fill-rule="evenodd"></path><path id="path4" d="M216.311 13.981 C 216.311 14.436,216.609 14.436,217.670 13.981 C 218.358 13.685,218.325 13.644,217.379 13.620 C 216.791 13.605,216.311 13.767,216.311 13.981 M295.631 42.986 C 296.005 43.084,296.617 43.084,296.990 42.986 C 297.364 42.888,297.058 42.809,296.311 42.809 C 295.563 42.809,295.257 42.888,295.631 42.986 M263.495 47.767 C 265.623 49.903,267.451 51.650,267.558 51.650 C 267.665 51.650,266.011 49.903,263.883 47.767 C 261.756 45.631,259.927 43.883,259.820 43.883 C 259.714 43.883,261.367 45.631,263.495 47.767 M304.854 45.366 C 304.854 45.550,305.291 45.900,305.825 46.143 C 306.359 46.386,306.796 46.522,306.796 46.444 C 306.796 46.366,306.359 46.017,305.825 45.667 C 305.291 45.317,304.854 45.181,304.854 45.366 M278.641 56.311 C 282.053 59.728,284.933 62.524,285.039 62.524 C 285.146 62.524,282.442 59.728,279.029 56.311 C 275.617 52.893,272.737 50.097,272.630 50.097 C 272.524 50.097,275.228 52.893,278.641 56.311 M298.252 53.714 C 298.252 53.781,298.820 54.349,299.515 54.976 L 300.777 56.117 299.636 54.854 C 298.573 53.678,298.252 53.414,298.252 53.714 M217.980 63.301 C 217.980 64.476,218.053 64.956,218.142 64.369 C 218.231 63.782,218.231 62.820,218.142 62.233 C 218.053 61.646,217.980 62.126,217.980 63.301 M211.753 70.570 C 212.343 70.659,213.217 70.657,213.695 70.565 C 214.172 70.472,213.689 70.399,212.621 70.402 C 211.553 70.405,211.163 70.481,211.753 70.570 M336.893 72.621 C 338.161 73.903,339.286 74.951,339.393 74.951 C 339.500 74.951,338.550 73.903,337.282 72.621 C 336.013 71.340,334.888 70.291,334.782 70.291 C 334.675 70.291,335.625 71.340,336.893 72.621 M216.684 71.271 C 217.636 71.568,218.475 71.751,218.548 71.679 C 218.747 71.480,216.288 70.676,215.573 70.706 C 215.231 70.720,215.731 70.974,216.684 71.271 M203.530 73.986 C 201.895 75.515,198.894 80.188,199.291 80.586 C 199.370 80.664,200.018 79.602,200.732 78.224 C 201.493 76.757,202.834 74.998,203.970 73.977 C 205.037 73.018,205.795 72.233,205.656 72.233 C 205.517 72.233,204.560 73.022,203.530 73.986 M248.252 72.889 C 248.626 72.987,249.238 72.987,249.612 72.889 C 249.985 72.791,249.680 72.711,248.932 72.711 C 248.184 72.711,247.879 72.791,248.252 72.889 M198.280 83.329 C 198.137 83.898,198.095 84.438,198.187 84.530 C 198.278 84.621,198.470 84.231,198.613 83.662 C 198.756 83.092,198.798 82.552,198.706 82.460 C 198.615 82.369,198.423 82.760,198.280 83.329 M274.272 82.986 C 274.646 83.084,275.257 83.084,275.631 82.986 C 276.005 82.888,275.699 82.809,274.951 82.809 C 274.204 82.809,273.898 82.888,274.272 82.986 M270.777 83.374 C 271.150 83.472,271.762 83.472,272.136 83.374 C 272.510 83.277,272.204 83.197,271.456 83.197 C 270.709 83.197,270.403 83.277,270.777 83.374 M267.092 83.770 C 267.575 83.863,268.274 83.859,268.645 83.762 C 269.017 83.665,268.621 83.589,267.767 83.593 C 266.913 83.597,266.609 83.677,267.092 83.770 M262.816 84.158 C 263.296 84.250,264.083 84.250,264.563 84.158 C 265.044 84.065,264.650 83.989,263.689 83.989 C 262.728 83.989,262.335 84.065,262.816 84.158 M258.350 84.540 C 258.723 84.637,259.335 84.637,259.709 84.540 C 260.083 84.442,259.777 84.362,259.029 84.362 C 258.282 84.362,257.976 84.442,258.350 84.540 M253.883 84.934 C 254.364 85.027,255.150 85.027,255.631 84.934 C 256.112 84.842,255.718 84.766,254.757 84.766 C 253.796 84.766,253.403 84.842,253.883 84.934 M248.252 85.327 C 248.840 85.416,249.801 85.416,250.388 85.327 C 250.976 85.238,250.495 85.165,249.320 85.165 C 248.146 85.165,247.665 85.238,248.252 85.327 M241.650 85.715 C 242.238 85.804,243.199 85.804,243.786 85.715 C 244.374 85.626,243.893 85.553,242.718 85.553 C 241.544 85.553,241.063 85.626,241.650 85.715 M233.689 86.106 C 234.383 86.192,235.519 86.192,236.214 86.106 C 236.908 86.020,236.340 85.950,234.951 85.950 C 233.563 85.950,232.995 86.020,233.689 86.106 M222.816 86.498 C 223.723 86.580,225.209 86.580,226.117 86.498 C 227.024 86.416,226.282 86.349,224.466 86.349 C 222.650 86.349,221.908 86.416,222.816 86.498 M201.865 86.892 C 204.066 86.961,207.561 86.961,209.632 86.891 C 211.703 86.822,209.903 86.765,205.631 86.765 C 201.359 86.765,199.665 86.822,201.865 86.892 M197.670 98.835 C 197.670 104.566,197.752 109.173,197.853 109.073 C 198.115 108.810,198.150 88.895,197.889 88.633 C 197.768 88.513,197.670 93.104,197.670 98.835 M337.071 96.796 C 338.023 97.811,338.853 98.641,338.916 98.641 C 339.207 98.641,338.899 98.292,337.184 96.683 L 335.340 94.951 337.071 96.796 M286.855 96.589 C 287.775 96.704,288.198 97.029,288.558 97.898 C 288.821 98.534,289.113 98.977,289.207 98.883 C 289.837 98.253,288.044 96.315,286.883 96.373 L 285.631 96.435 286.855 96.589 M282.816 96.967 C 283.189 97.064,283.801 97.064,284.175 96.967 C 284.549 96.869,284.243 96.789,283.495 96.789 C 282.748 96.789,282.442 96.869,282.816 96.967 M279.320 97.355 C 279.694 97.453,280.306 97.453,280.680 97.355 C 281.053 97.257,280.748 97.177,280.000 97.177 C 279.252 97.177,278.947 97.257,279.320 97.355 M275.825 97.743 C 276.199 97.841,276.811 97.841,277.184 97.743 C 277.558 97.646,277.252 97.566,276.505 97.566 C 275.757 97.566,275.451 97.646,275.825 97.743 M271.752 98.139 C 272.235 98.232,272.934 98.228,273.305 98.131 C 273.677 98.034,273.282 97.958,272.427 97.962 C 271.573 97.966,271.269 98.046,271.752 98.139 M267.476 98.526 C 267.956 98.619,268.743 98.619,269.223 98.526 C 269.704 98.434,269.311 98.358,268.350 98.358 C 267.388 98.358,266.995 98.434,267.476 98.526 M263.015 98.919 C 263.605 99.009,264.479 99.006,264.957 98.914 C 265.434 98.822,264.951 98.749,263.883 98.752 C 262.816 98.755,262.425 98.830,263.015 98.919 M257.967 99.308 C 258.557 99.397,259.431 99.395,259.908 99.302 C 260.386 99.210,259.903 99.137,258.835 99.140 C 257.767 99.143,257.376 99.219,257.967 99.308 M302.218 103.869 C 303.114 105.676,303.911 107.093,303.987 107.016 C 304.160 106.843,301.034 100.583,300.775 100.583 C 300.672 100.583,301.322 102.061,302.218 103.869 M224.435 103.204 C 224.621 104.544,224.648 104.572,224.776 103.545 C 224.852 102.932,224.762 102.276,224.574 102.089 C 224.379 101.894,224.320 102.369,224.435 103.204 M213.875 104.358 C 214.564 104.444,215.788 104.445,216.593 104.361 C 217.399 104.277,216.835 104.207,215.340 104.205 C 213.845 104.203,213.185 104.272,213.875 104.358 M259.936 111.845 C 259.936 113.447,260.005 114.102,260.089 113.301 C 260.173 112.500,260.173 111.189,260.089 110.388 C 260.005 109.587,259.936 110.243,259.936 111.845 M226.019 113.935 C 226.019 114.352,227.175 116.505,227.399 116.505 C 227.505 116.505,227.304 115.937,226.951 115.243 C 226.230 113.825,226.019 113.530,226.019 113.935 M242.039 126.870 C 242.413 126.967,243.024 126.967,243.398 126.870 C 243.772 126.772,243.466 126.692,242.718 126.692 C 241.971 126.692,241.665 126.772,242.039 126.870 M197.459 160.000 C 197.459 169.078,197.510 172.791,197.572 168.252 C 197.635 163.714,197.635 156.286,197.572 151.748 C 197.510 147.209,197.459 150.922,197.459 160.000 M285.967 157.864 C 285.968 160.000,286.033 160.824,286.112 159.696 C 286.191 158.567,286.190 156.820,286.110 155.812 C 286.030 154.805,285.966 155.728,285.967 157.864 M353.134 163.495 C 353.134 164.883,353.204 165.451,353.291 164.757 C 353.377 164.063,353.377 162.927,353.291 162.233 C 353.204 161.539,353.134 162.107,353.134 163.495 M342.238 179.308 C 342.829 179.397,343.702 179.395,344.180 179.302 C 344.658 179.210,344.175 179.137,343.107 179.140 C 342.039 179.143,341.648 179.219,342.238 179.308 M304.957 185.133 C 305.547 185.222,306.421 185.220,306.899 185.128 C 307.376 185.036,306.893 184.963,305.825 184.965 C 304.757 184.968,304.366 185.044,304.957 185.133 M312.323 187.961 C 312.323 188.709,312.403 189.015,312.501 188.641 C 312.598 188.267,312.598 187.655,312.501 187.282 C 312.403 186.908,312.323 187.214,312.323 187.961 M328.245 193.398 C 328.245 194.146,328.325 194.451,328.423 194.078 C 328.521 193.704,328.521 193.092,328.423 192.718 C 328.325 192.345,328.245 192.650,328.245 193.398 M312.323 196.117 C 312.323 196.864,312.403 197.170,312.501 196.796 C 312.598 196.422,312.598 195.811,312.501 195.437 C 312.403 195.063,312.323 195.369,312.323 196.117 M328.642 197.087 C 328.646 197.942,328.725 198.246,328.818 197.762 C 328.911 197.279,328.908 196.580,328.811 196.209 C 328.713 195.838,328.637 196.233,328.642 197.087 M329.038 201.553 C 329.038 202.515,329.114 202.908,329.206 202.427 C 329.299 201.947,329.299 201.160,329.206 200.680 C 329.114 200.199,329.038 200.592,329.038 201.553 M329.437 206.214 C 329.437 207.388,329.510 207.869,329.599 207.282 C 329.688 206.694,329.688 205.733,329.599 205.146 C 329.510 204.558,329.437 205.039,329.437 206.214 M329.829 211.845 C 329.831 213.126,329.904 213.604,329.990 212.906 C 330.077 212.208,330.075 211.159,329.986 210.576 C 329.898 209.992,329.827 210.563,329.829 211.845 M319.806 213.592 C 320.640 214.447,321.410 215.146,321.517 215.146 C 321.624 215.146,321.028 214.447,320.194 213.592 C 319.360 212.738,318.590 212.039,318.483 212.039 C 318.376 212.039,318.972 212.738,319.806 213.592 M337.066 213.495 L 335.728 214.951 337.184 213.613 C 337.985 212.877,338.641 212.222,338.641 212.157 C 338.641 211.860,338.312 212.140,337.066 213.495 M69.903 221.553 C 70.627 222.301,71.308 222.913,71.414 222.913 C 71.521 222.913,71.016 222.301,70.291 221.553 C 69.567 220.806,68.886 220.194,68.780 220.194 C 68.673 220.194,69.178 220.806,69.903 221.553 M62.666 226.214 C 62.667 228.350,62.732 229.174,62.811 228.045 C 62.890 226.917,62.889 225.169,62.809 224.162 C 62.729 223.154,62.665 224.078,62.666 226.214 M251.262 231.189 C 251.262 231.256,251.830 231.824,252.524 232.452 L 253.786 233.592 252.646 232.330 C 251.583 231.154,251.262 230.889,251.262 231.189 M49.074 235.534 C 49.075 237.670,49.140 238.494,49.219 237.366 C 49.297 236.237,49.297 234.490,49.217 233.482 C 49.137 232.475,49.073 233.398,49.074 235.534 M63.029 235.728 C 63.029 236.903,63.102 237.383,63.191 236.796 C 63.280 236.209,63.280 235.248,63.191 234.660 C 63.102 234.073,63.029 234.553,63.029 235.728 M63.399 242.136 C 63.403 242.990,63.483 243.294,63.576 242.811 C 63.669 242.328,63.665 241.629,63.568 241.258 C 63.471 240.886,63.395 241.282,63.399 242.136 M78.596 245.825 C 78.596 248.495,78.658 249.587,78.734 248.252 C 78.810 246.917,78.810 244.733,78.734 243.398 C 78.658 242.063,78.596 243.155,78.596 245.825 M63.795 246.602 C 63.795 247.563,63.871 247.956,63.963 247.476 C 64.056 246.995,64.056 246.209,63.963 245.728 C 63.871 245.248,63.795 245.641,63.795 246.602 M64.168 250.485 C 64.168 251.233,64.248 251.539,64.345 251.165 C 64.443 250.791,64.443 250.180,64.345 249.806 C 64.248 249.432,64.168 249.738,64.168 250.485 M64.556 253.981 C 64.556 254.728,64.636 255.034,64.734 254.660 C 64.831 254.286,64.831 253.675,64.734 253.301 C 64.636 252.927,64.556 253.233,64.556 253.981 M80.879 255.036 C 81.469 255.125,82.343 255.123,82.821 255.031 C 83.299 254.938,82.816 254.865,81.748 254.868 C 80.680 254.871,80.289 254.947,80.879 255.036 M39.313 257.476 C 39.313 258.223,39.393 258.529,39.491 258.155 C 39.589 257.782,39.589 257.170,39.491 256.796 C 39.393 256.422,39.313 256.728,39.313 257.476 M39.321 261.942 C 39.326 262.796,39.405 263.100,39.498 262.617 C 39.591 262.134,39.587 261.435,39.490 261.063 C 39.393 260.692,39.317 261.087,39.321 261.942 M104.211 283.689 C 104.212 285.398,104.280 286.049,104.363 285.135 C 104.445 284.222,104.443 282.824,104.360 282.029 C 104.277 281.233,104.209 281.981,104.211 283.689 M94.785 322.524 C 94.785 322.738,95.035 323.350,95.340 323.883 C 95.645 324.417,95.895 324.680,95.895 324.466 C 95.895 324.252,95.645 323.641,95.340 323.107 C 95.035 322.573,94.785 322.311,94.785 322.524 M130.208 327.961 C 130.211 329.029,130.286 329.420,130.376 328.830 C 130.465 328.239,130.463 327.366,130.370 326.888 C 130.278 326.410,130.205 326.893,130.208 327.961 M61.553 330.874 C 62.822 332.155,63.947 333.204,64.053 333.204 C 64.160 333.204,63.210 332.155,61.942 330.874 C 60.674 329.592,59.549 328.544,59.442 328.544 C 59.335 328.544,60.285 329.592,61.553 330.874 M169.059 336.117 C 169.061 337.612,169.131 338.176,169.215 337.370 C 169.300 336.564,169.298 335.341,169.212 334.652 C 169.127 333.962,169.058 334.621,169.059 336.117 M104.563 335.413 C 104.937 335.511,105.549 335.511,105.922 335.413 C 106.296 335.316,105.990 335.236,105.243 335.236 C 104.495 335.236,104.189 335.316,104.563 335.413 M107.670 335.802 C 108.044 335.899,108.655 335.899,109.029 335.802 C 109.403 335.704,109.097 335.624,108.350 335.624 C 107.602 335.624,107.296 335.704,107.670 335.802 M110.777 336.190 C 111.150 336.288,111.762 336.288,112.136 336.190 C 112.510 336.092,112.204 336.012,111.456 336.012 C 110.709 336.012,110.403 336.092,110.777 336.190 M114.471 336.585 C 114.954 336.678,115.653 336.675,116.024 336.578 C 116.395 336.480,116.000 336.404,115.146 336.409 C 114.291 336.413,113.987 336.492,114.471 336.585 M117.961 336.973 C 118.442 337.066,119.228 337.066,119.709 336.973 C 120.189 336.881,119.796 336.805,118.835 336.805 C 117.874 336.805,117.481 336.881,117.961 336.973 M121.845 337.361 C 122.325 337.454,123.112 337.454,123.592 337.361 C 124.073 337.269,123.680 337.193,122.718 337.193 C 121.757 337.193,121.364 337.269,121.845 337.361 M126.117 337.750 C 126.597 337.842,127.383 337.842,127.864 337.750 C 128.345 337.657,127.951 337.582,126.990 337.582 C 126.029 337.582,125.636 337.657,126.117 337.750 M130.976 338.143 C 131.567 338.232,132.440 338.230,132.918 338.137 C 133.396 338.045,132.913 337.972,131.845 337.975 C 130.777 337.978,130.386 338.053,130.976 338.143 M99.655 345.561 C 99.547 345.736,99.974 345.803,100.603 345.711 C 101.233 345.619,101.748 345.475,101.748 345.393 C 101.748 345.097,99.848 345.249,99.655 345.561 M111.165 347.064 C 111.539 347.161,112.150 347.161,112.524 347.064 C 112.898 346.966,112.592 346.886,111.845 346.886 C 111.097 346.886,110.791 346.966,111.165 347.064 M114.272 347.452 C 114.646 347.550,115.257 347.550,115.631 347.452 C 116.005 347.354,115.699 347.275,114.951 347.275 C 114.204 347.275,113.898 347.354,114.272 347.452 M117.379 347.841 C 117.752 347.938,118.364 347.938,118.738 347.841 C 119.112 347.743,118.806 347.663,118.058 347.663 C 117.311 347.663,117.005 347.743,117.379 347.841 M120.874 348.229 C 121.248 348.327,121.859 348.327,122.233 348.229 C 122.607 348.131,122.301 348.051,121.553 348.051 C 120.806 348.051,120.500 348.131,120.874 348.229 M124.568 348.624 C 125.051 348.717,125.750 348.714,126.121 348.616 C 126.492 348.519,126.097 348.443,125.243 348.447 C 124.388 348.452,124.085 348.531,124.568 348.624 M128.451 349.013 C 128.934 349.105,129.633 349.102,130.005 349.005 C 130.376 348.907,129.981 348.831,129.126 348.836 C 128.272 348.840,127.968 348.920,128.451 349.013 M132.330 349.400 C 132.811 349.493,133.597 349.493,134.078 349.400 C 134.558 349.308,134.165 349.232,133.204 349.232 C 132.243 349.232,131.850 349.308,132.330 349.400 M137.190 349.793 C 137.780 349.882,138.654 349.880,139.132 349.788 C 139.609 349.696,139.126 349.623,138.058 349.626 C 136.990 349.629,136.599 349.704,137.190 349.793 M142.238 350.182 C 142.829 350.271,143.702 350.268,144.180 350.176 C 144.658 350.084,144.175 350.011,143.107 350.014 C 142.039 350.017,141.648 350.092,142.238 350.182 M147.864 350.572 C 148.558 350.658,149.694 350.658,150.388 350.572 C 151.083 350.486,150.515 350.416,149.126 350.416 C 147.738 350.416,147.170 350.486,147.864 350.572 M154.660 350.963 C 155.461 351.046,156.772 351.046,157.573 350.963 C 158.374 350.879,157.718 350.810,156.117 350.810 C 154.515 350.810,153.859 350.879,154.660 350.963 M162.816 351.353 C 163.830 351.433,165.490 351.433,166.505 351.353 C 167.519 351.273,166.689 351.208,164.660 351.208 C 162.631 351.208,161.801 351.273,162.816 351.353 M174.679 351.746 C 176.451 351.818,179.247 351.817,180.892 351.745 C 182.537 351.672,181.087 351.613,177.670 351.614 C 174.252 351.614,172.906 351.673,174.679 351.746 M192.136 352.131 C 193.257 352.209,195.092 352.209,196.214 352.131 C 197.335 352.053,196.417 351.988,194.175 351.988 C 191.932 351.988,191.015 352.053,192.136 352.131 M137.961 359.879 C 138.335 359.977,138.947 359.977,139.320 359.879 C 139.694 359.782,139.388 359.702,138.641 359.702 C 137.893 359.702,137.587 359.782,137.961 359.879 M142.621 360.268 C 142.995 360.365,143.607 360.365,143.981 360.268 C 144.354 360.170,144.049 360.090,143.301 360.090 C 142.553 360.090,142.248 360.170,142.621 360.268 M122.913 363.883 C 124.611 365.592,126.089 366.990,126.195 366.990 C 126.302 366.990,125.000 365.592,123.301 363.883 C 121.602 362.175,120.125 360.777,120.018 360.777 C 119.911 360.777,121.214 362.175,122.913 363.883 M176.422 368.738 C 176.425 369.806,176.500 370.197,176.589 369.606 C 176.679 369.016,176.676 368.142,176.584 367.665 C 176.492 367.187,176.419 367.670,176.422 368.738 " stroke="none" fill="#eb2640" fill-rule="evenodd"></path></g></svg>